<?xml version="1.0" encoding="UTF-8" standalone="no"?>
<svg
   xmlns:dc="http://purl.org/dc/elements/1.1/"
   xmlns:cc="http://creativecommons.org/ns#"
   xmlns:rdf="http://www.w3.org/1999/02/22-rdf-syntax-ns#"
   xmlns:svg="http://www.w3.org/2000/svg"
   xmlns="http://www.w3.org/2000/svg"
   xmlns:sodipodi="http://sodipodi.sourceforge.net/DTD/sodipodi-0.dtd"
   xmlns:inkscape="http://www.inkscape.org/namespaces/inkscape"
   width="24"
   height="24"
   viewBox="0 0 24 24"
   version="1.1"
   id="svg869"
   sodipodi:docname="file_copy-24px.svg"
   inkscape:version="0.92.4 (f8dce91, 2019-08-02)">
  <metadata
     id="metadata875">
    <rdf:RDF>
      <cc:Work
         rdf:about="">
        <dc:format>image/svg+xml</dc:format>
        <dc:type
           rdf:resource="http://purl.org/dc/dcmitype/StillImage" />
      </cc:Work>
    </rdf:RDF>
  </metadata>
  <defs
     id="defs873" />
  <sodipodi:namedview
     pagecolor="#ffffff"
     bordercolor="#666666"
     borderopacity="1"
     objecttolerance="10"
     gridtolerance="10"
     guidetolerance="10"
     inkscape:pageopacity="0"
     inkscape:pageshadow="2"
     inkscape:window-width="1366"
     inkscape:window-height="704"
     id="namedview871"
     showgrid="false"
     inkscape:zoom="15.497424"
     inkscape:cx="10.053298"
     inkscape:cy="13.051227"
     inkscape:window-x="0"
     inkscape:window-y="27"
     inkscape:window-maximized="1"
     inkscape:current-layer="svg869" />
  <path
     fill="none"
     d="M0 0h24v24H0z"
     id="path865" />
  <path
     style="opacity:1"
     d="M 4 1 C 2.9 1 2 1.9 2 3 L 2 17 L 4 17 L 4 3 L 16 3 L 16 1 L 4 1 z M 8 5.0175781 C 6.9 5.0175781 6 5.9175781 6 7.0175781 L 6 21.017578 C 6 22.117578 6.9 23.017578 8 23.017578 L 8.9667969 23.017578 L 18 23.017578 L 18.966797 23.017578 C 20.066797 23.017578 20.966797 22.117578 20.966797 21.017578 L 20.966797 7.0175781 C 20.966797 5.9175781 20.066797 5.0175781 18.966797 5.0175781 L 18 5.0175781 L 8.9667969 5.0175781 L 8 5.0175781 z M 8 7.0175781 L 8.9667969 7.0175781 L 18 7.0175781 L 18.966797 7.0175781 L 18.966797 21.017578 L 18 21.017578 L 8.9667969 21.017578 L 8 21.017578 L 8 7.0175781 z "
     id="path867" />
</svg>
