<?xml version="1.0" encoding="UTF-8" standalone="no"?>
<!-- Created with Inkscape (http://www.inkscape.org/) -->

<svg
   xmlns:dc="http://purl.org/dc/elements/1.1/"
   xmlns:cc="http://creativecommons.org/ns#"
   xmlns:rdf="http://www.w3.org/1999/02/22-rdf-syntax-ns#"
   xmlns:svg="http://www.w3.org/2000/svg"
   xmlns="http://www.w3.org/2000/svg"
   xmlns:sodipodi="http://sodipodi.sourceforge.net/DTD/sodipodi-0.dtd"
   xmlns:inkscape="http://www.inkscape.org/namespaces/inkscape"
   width="800"
   height="600"
   viewBox="0 0 211.66666 158.75"
   version="1.1"
   id="svg896"
   inkscape:version="0.92.4 (f8dce91, 2019-08-02)"
   sodipodi:docname="form_img.svg">
  <defs
     id="defs890" />
  <sodipodi:namedview
     id="base"
     pagecolor="#ffffff"
     bordercolor="#666666"
     borderopacity="1.0"
     inkscape:pageopacity="0.0"
     inkscape:pageshadow="2"
     inkscape:zoom="0.7"
     inkscape:cx="410.22747"
     inkscape:cy="257.55086"
     inkscape:document-units="mm"
     inkscape:current-layer="layer1"
     showgrid="false"
     units="px"
     inkscape:window-width="1366"
     inkscape:window-height="704"
     inkscape:window-x="0"
     inkscape:window-y="27"
     inkscape:window-maximized="1" />
  <metadata
     id="metadata893">
    <rdf:RDF>
      <cc:Work
         rdf:about="">
        <dc:format>image/svg+xml</dc:format>
        <dc:type
           rdf:resource="http://purl.org/dc/dcmitype/StillImage" />
        <dc:title />
      </cc:Work>
    </rdf:RDF>
  </metadata>
  <g
     inkscape:label="Layer 1"
     inkscape:groupmode="layer"
     id="layer1"
     transform="translate(0,-138.24998)">
    <rect
       style="opacity:1;fill:#b3dd5a;fill-opacity:1;stroke:none;stroke-width:0.79374999;stroke-linecap:round;stroke-linejoin:round;stroke-miterlimit:4;stroke-dasharray:none;stroke-opacity:1"
       id="rect1441"
       width="211.66667"
       height="158.75"
       x="0"
       y="138.24998" />
    <rect
       style="opacity:1;fill:#45a200;fill-opacity:1;stroke:none;stroke-width:0.79375005;stroke-linecap:round;stroke-linejoin:round;stroke-miterlimit:4;stroke-dasharray:none;stroke-opacity:1"
       id="rect1447"
       width="211.66667"
       height="72.760422"
       x="0"
       y="138.24997" />
    <rect
       style="opacity:1;fill:#ffffff;fill-opacity:1;stroke:none;stroke-width:0.79374999;stroke-linecap:round;stroke-linejoin:round;stroke-miterlimit:4;stroke-dasharray:none;stroke-opacity:1"
       id="rect1445"
       width="119.0625"
       height="112.44791"
       x="46.302086"
       y="184.55206" />
    <g
       aria-label="Title"
       transform="matrix(0.26458333,0,0,0.26458333,3.0238096,128.4982)"
       style="font-style:normal;font-variant:normal;font-weight:normal;font-stretch:normal;font-size:40px;line-height:1.25;font-family:'Ubuntu Mono';-inkscape-font-specification:'Ubuntu Mono';letter-spacing:0px;word-spacing:0px;fill:#000000;fill-opacity:1;stroke:none"
       id="flowRoot2064">
      <path
         d="m 227.57227,261.11996 v 4.08 h -6.52 v 20.68 h -4.96 v -20.68 h -6.52 v -4.08 z"
         style="font-style:normal;font-variant:normal;font-weight:bold;font-stretch:normal;font-family:'Ubuntu Mono';-inkscape-font-specification:'Ubuntu Mono Bold'"
         id="path1056"
         inkscape:connector-curvature="0" />
      <path
         d="m 239.93227,261.67996 q 0,1.44 -0.92,2.28 -0.92,0.84 -2.2,0.84 -1.28,0 -2.2,-0.84 -0.88,-0.84 -0.88,-2.28 0,-1.48 0.88,-2.32 0.92,-0.84 2.2,-0.84 1.28,0 2.2,0.84 0.92,0.84 0.92,2.32 z m 7.32,23.4 q -1.52,0.72 -2.88,0.96 -1.32,0.28 -2.44,0.28 -1.92,0 -3.24,-0.56 -1.28,-0.56 -2.08,-1.6 -0.76,-1.08 -1.08,-2.6 -0.32,-1.52 -0.32,-3.48 v -6.92 h -5.2 v -4.08 h 10.12 v 11.64 q 0,1.68 0.6,2.52 0.64,0.8 2.08,0.8 0.68,0 1.64,-0.16 0.96,-0.2 2.16,-0.76 z"
         style="font-style:normal;font-variant:normal;font-weight:bold;font-stretch:normal;font-family:'Ubuntu Mono';-inkscape-font-specification:'Ubuntu Mono Bold'"
         id="path1058"
         inkscape:connector-curvature="0" />
      <path
         d="m 254.29227,271.15996 h -4.28 v -4.08 h 4.28 v -4.72 l 4.92,-0.8 v 5.52 h 7.88 v 4.08 h -7.88 v 7.6 q 0,1.04 0.2,1.68 0.2,0.64 0.56,1 0.36,0.36 0.88,0.48 0.52,0.12 1.16,0.12 0.68,0 1.24,-0.04 0.6,-0.04 1.12,-0.12 0.56,-0.12 1.12,-0.32 0.6,-0.2 1.28,-0.52 l 0.68,4.24 q -1.36,0.56 -2.96,0.8 -1.56,0.24 -3.04,0.24 -1.72,0 -3.04,-0.28 -1.32,-0.28 -2.24,-1.08 -0.92,-0.8 -1.4,-2.24 -0.48,-1.48 -0.48,-3.84 z"
         style="font-style:normal;font-variant:normal;font-weight:bold;font-stretch:normal;font-family:'Ubuntu Mono';-inkscape-font-specification:'Ubuntu Mono Bold'"
         id="path1060"
         inkscape:connector-curvature="0" />
      <path
         d="m 287.25227,285.07996 q -0.12,0.08 -0.56,0.28 -0.4,0.2 -1.08,0.44 -0.68,0.2 -1.68,0.36 -0.96,0.16 -2.2,0.16 -3.4,0 -4.96,-2 -1.56,-2.04 -1.56,-5.92 v -15.96 h -5.2 v -4.08 h 10.12 v 20.4 q 0,1.92 0.76,2.6 0.76,0.68 1.92,0.68 1.48,0 2.48,-0.4 1,-0.4 1.32,-0.52 z"
         style="font-style:normal;font-variant:normal;font-weight:bold;font-stretch:normal;font-family:'Ubuntu Mono';-inkscape-font-specification:'Ubuntu Mono Bold'"
         id="path1062"
         inkscape:connector-curvature="0" />
      <path
         d="m 289.81227,276.63996 q 0,-2.48 0.76,-4.36 0.76,-1.88 2,-3.12 1.24,-1.28 2.84,-1.92 1.6,-0.64 3.28,-0.64 4.16,0 6.32,2.48 2.16,2.44 2.16,7.16 0,0.48 -0.04,1 0,0.52 -0.04,0.84 h -12.2 q 0,1.84 1.52,2.92 1.52,1.04 3.92,1.04 1.48,0 2.8,-0.32 1.36,-0.32 2.28,-0.64 l 0.68,4.2 q -1.28,0.44 -2.72,0.72 -1.44,0.32 -3.24,0.32 -2.4,0 -4.32,-0.6 -1.88,-0.64 -3.24,-1.84 -1.32,-1.24 -2.04,-3.04 -0.72,-1.8 -0.72,-4.2 z m 12.6,-1.96 q 0,-0.76 -0.2,-1.44 -0.2,-0.72 -0.64,-1.28 -0.44,-0.56 -1.12,-0.88 -0.68,-0.36 -1.68,-0.36 -0.96,0 -1.68,0.32 -0.68,0.32 -1.16,0.88 -0.44,0.56 -0.72,1.28 -0.24,0.72 -0.32,1.48 z"
         style="font-style:normal;font-variant:normal;font-weight:bold;font-stretch:normal;font-family:'Ubuntu Mono';-inkscape-font-specification:'Ubuntu Mono Bold'"
         id="path1064"
         inkscape:connector-curvature="0" />
    </g>
    <g
       aria-label="Discription"
       transform="matrix(0.26458333,0,0,0.26458333,3.0238096,139.08154)"
       style="font-style:normal;font-variant:normal;font-weight:normal;font-stretch:normal;font-size:40px;line-height:1.25;font-family:'Ubuntu Mono';-inkscape-font-specification:'Ubuntu Mono';letter-spacing:0px;word-spacing:0px;fill:#000000;fill-opacity:1;stroke:none"
       id="flowRoot2082">
      <path
         d="m 217.77227,279.67996 q 0,1.72 -0.44,2.92 -0.42,1.2 -1.18,1.96 -0.74,0.74 -1.78,1.08 -1.02,0.34 -2.22,0.34 -1.24,0 -2.5,-0.3 v -12 q 1.26,-0.3 2.5,-0.3 1.2,0 2.22,0.34 1.04,0.34 1.78,1.1 0.76,0.76 1.18,1.96 0.44,1.2 0.44,2.9 z m -6.48,4.82 q 0.5,0.06 1.02,0.06 0.9,0 1.6,-0.26 0.7,-0.28 1.18,-0.86 0.48,-0.6 0.74,-1.52 0.26,-0.94 0.26,-2.24 0,-2.52 -0.98,-3.7 -0.96,-1.18 -2.86,-1.18 -0.26,0 -0.52,0.02 -0.24,0 -0.44,0.04 z"
         style="font-style:normal;font-variant:normal;font-weight:normal;font-stretch:normal;font-size:20px;font-family:'Ubuntu Mono';-inkscape-font-specification:'Ubuntu Mono';fill:#707070;fill-opacity:1"
         id="path1033"
         inkscape:connector-curvature="0" />
      <path
         d="m 222.75227,275.15996 q -0.52,0 -0.9,-0.36 -0.38,-0.36 -0.38,-0.98 0,-0.62 0.38,-0.98 0.38,-0.36 0.9,-0.36 0.54,0 0.9,0.36 0.38,0.36 0.38,0.98 0,0.62 -0.38,0.98 -0.36,0.36 -0.9,0.36 z m -0.42,2.82 h -2.68 v -1.38 h 4.32 v 5.7 q 0,1.38 0.38,1.86 0.38,0.46 1.14,0.46 0.58,0 1.06,-0.14 0.5,-0.14 0.78,-0.3 l 0.24,1.4 q -0.12,0.06 -0.34,0.16 -0.22,0.08 -0.52,0.16 -0.28,0.08 -0.64,0.14 -0.34,0.06 -0.72,0.06 -0.88,0 -1.46,-0.24 -0.58,-0.24 -0.94,-0.72 -0.34,-0.48 -0.48,-1.18 -0.14,-0.72 -0.14,-1.66 z"
         style="font-style:normal;font-variant:normal;font-weight:normal;font-stretch:normal;font-size:20px;font-family:'Ubuntu Mono';-inkscape-font-specification:'Ubuntu Mono';fill:#707070;fill-opacity:1"
         id="path1035"
         inkscape:connector-curvature="0" />
      <path
         d="m 235.59227,283.55996 q 0,-0.5 -0.42,-0.82 -0.4,-0.32 -1.02,-0.56 -0.6,-0.24 -1.32,-0.46 -0.72,-0.24 -1.34,-0.58 -0.6,-0.34 -1.02,-0.84 -0.4,-0.5 -0.4,-1.3 0,-1.12 0.9,-1.86 0.92,-0.76 2.86,-0.76 0.76,0 1.56,0.12 0.82,0.1 1.4,0.28 l -0.3,1.48 q -0.16,-0.08 -0.44,-0.16 -0.28,-0.1 -0.64,-0.16 -0.36,-0.08 -0.78,-0.12 -0.4,-0.04 -0.78,-0.04 -2.16,0 -2.16,1.18 0,0.42 0.4,0.72 0.42,0.28 1.04,0.52 0.62,0.24 1.34,0.5 0.72,0.24 1.34,0.6 0.62,0.36 1.02,0.88 0.42,0.5 0.42,1.28 0,1.26 -0.98,1.96 -0.98,0.68 -3.1,0.68 -0.96,0 -1.76,-0.16 -0.8,-0.16 -1.52,-0.48 l 0.32,-1.5 q 0.7,0.32 1.46,0.54 0.78,0.2 1.66,0.2 2.26,0 2.26,-1.14 z"
         style="font-style:normal;font-variant:normal;font-weight:normal;font-stretch:normal;font-size:20px;font-family:'Ubuntu Mono';-inkscape-font-specification:'Ubuntu Mono';fill:#707070;fill-opacity:1"
         id="path1037"
         inkscape:connector-curvature="0" />
      <path
         d="m 239.55227,281.25996 q 0,-1.26 0.4,-2.18 0.4,-0.92 1.1,-1.52 0.7,-0.6 1.62,-0.88 0.94,-0.3 2,-0.3 0.68,0 1.34,0.1 0.68,0.08 1.44,0.32 l -0.38,1.42 q -0.66,-0.24 -1.22,-0.3 -0.54,-0.08 -1.1,-0.08 -0.72,0 -1.36,0.2 -0.64,0.18 -1.12,0.6 -0.46,0.4 -0.74,1.06 -0.28,0.64 -0.28,1.56 0,0.88 0.26,1.52 0.26,0.62 0.72,1.04 0.48,0.4 1.14,0.6 0.66,0.2 1.46,0.2 0.64,0 1.22,-0.06 0.6,-0.08 1.3,-0.32 l 0.24,1.38 q -0.7,0.26 -1.42,0.36 -0.72,0.12 -1.56,0.12 -1.12,0 -2.06,-0.3 -0.92,-0.32 -1.6,-0.92 -0.66,-0.6 -1.04,-1.5 -0.36,-0.92 -0.36,-2.12 z"
         style="font-style:normal;font-variant:normal;font-weight:normal;font-stretch:normal;font-size:20px;font-family:'Ubuntu Mono';-inkscape-font-specification:'Ubuntu Mono';fill:#707070;fill-opacity:1"
         id="path1039"
         inkscape:connector-curvature="0" />
      <path
         d="m 250.71227,285.87996 v -8.78 q 2.04,-0.7 4.12,-0.7 0.64,0 1.22,0.06 0.58,0.04 1.28,0.2 l -0.3,1.46 q -0.64,-0.18 -1.14,-0.22 -0.48,-0.06 -1.06,-0.06 -1.22,0 -2.48,0.34 v 7.7 z"
         style="font-style:normal;font-variant:normal;font-weight:normal;font-stretch:normal;font-size:20px;font-family:'Ubuntu Mono';-inkscape-font-specification:'Ubuntu Mono';fill:#707070;fill-opacity:1"
         id="path1041"
         inkscape:connector-curvature="0" />
      <path
         d="m 262.75227,275.15996 q -0.52,0 -0.9,-0.36 -0.38,-0.36 -0.38,-0.98 0,-0.62 0.38,-0.98 0.38,-0.36 0.9,-0.36 0.54,0 0.9,0.36 0.38,0.36 0.38,0.98 0,0.62 -0.38,0.98 -0.36,0.36 -0.9,0.36 z m -0.42,2.82 h -2.68 v -1.38 h 4.32 v 5.7 q 0,1.38 0.38,1.86 0.38,0.46 1.14,0.46 0.58,0 1.06,-0.14 0.5,-0.14 0.78,-0.3 l 0.24,1.4 q -0.12,0.06 -0.34,0.16 -0.22,0.08 -0.52,0.16 -0.28,0.08 -0.64,0.14 -0.34,0.06 -0.72,0.06 -0.88,0 -1.46,-0.24 -0.58,-0.24 -0.94,-0.72 -0.34,-0.48 -0.48,-1.18 -0.14,-0.72 -0.14,-1.66 z"
         style="font-style:normal;font-variant:normal;font-weight:normal;font-stretch:normal;font-size:20px;font-family:'Ubuntu Mono';-inkscape-font-specification:'Ubuntu Mono';fill:#707070;fill-opacity:1"
         id="path1043"
         inkscape:connector-curvature="0" />
      <path
         d="m 276.07227,281.25996 q 0,-1.62 -0.76,-2.5 -0.76,-0.9 -1.98,-0.9 -0.68,0 -1.08,0.06 -0.38,0.06 -0.6,0.14 v 5.86 q 0.28,0.26 0.82,0.48 0.54,0.22 1.12,0.22 0.66,0 1.12,-0.26 0.48,-0.26 0.78,-0.7 0.3,-0.46 0.44,-1.06 0.14,-0.62 0.14,-1.34 z m 1.7,0 q 0,1.06 -0.28,1.96 -0.26,0.88 -0.78,1.52 -0.5,0.64 -1.24,1 -0.74,0.36 -1.68,0.36 -0.74,0 -1.3,-0.18 -0.56,-0.18 -0.84,-0.4 v 3.66 h -1.66 v -12.3 q 0.54,-0.16 1.38,-0.32 0.86,-0.16 1.96,-0.16 1,0 1.82,0.34 0.82,0.34 1.4,0.98 0.58,0.62 0.9,1.52 0.32,0.9 0.32,2.02 z"
         style="font-style:normal;font-variant:normal;font-weight:normal;font-stretch:normal;font-size:20px;font-family:'Ubuntu Mono';-inkscape-font-specification:'Ubuntu Mono';fill:#707070;fill-opacity:1"
         id="path1045"
         inkscape:connector-curvature="0" />
      <path
         d="m 283.43227,276.59996 h 3.92 v 1.38 h -3.92 v 4.32 q 0,0.7 0.1,1.14 0.1,0.44 0.32,0.72 0.24,0.26 0.6,0.36 0.36,0.1 0.88,0.1 0.72,0 1.16,-0.12 0.44,-0.12 0.84,-0.32 l 0.24,1.4 q -0.28,0.12 -0.9,0.32 -0.6,0.2 -1.5,0.2 -1.04,0 -1.7,-0.24 -0.66,-0.24 -1.04,-0.72 -0.36,-0.48 -0.5,-1.18 -0.14,-0.72 -0.14,-1.66 v -4.32 h -1.96 v -1.38 h 1.96 v -2.6 l 1.64,-0.28 z"
         style="font-style:normal;font-variant:normal;font-weight:normal;font-stretch:normal;font-size:20px;font-family:'Ubuntu Mono';-inkscape-font-specification:'Ubuntu Mono';fill:#707070;fill-opacity:1"
         id="path1047"
         inkscape:connector-curvature="0" />
      <path
         d="m 292.75227,275.15996 q -0.52,0 -0.9,-0.36 -0.38,-0.36 -0.38,-0.98 0,-0.62 0.38,-0.98 0.38,-0.36 0.9,-0.36 0.54,0 0.9,0.36 0.38,0.36 0.38,0.98 0,0.62 -0.38,0.98 -0.36,0.36 -0.9,0.36 z m -0.42,2.82 h -2.68 v -1.38 h 4.32 v 5.7 q 0,1.38 0.38,1.86 0.38,0.46 1.14,0.46 0.58,0 1.06,-0.14 0.5,-0.14 0.78,-0.3 l 0.24,1.4 q -0.12,0.06 -0.34,0.16 -0.22,0.08 -0.52,0.16 -0.28,0.08 -0.64,0.14 -0.34,0.06 -0.72,0.06 -0.88,0 -1.46,-0.24 -0.58,-0.24 -0.94,-0.72 -0.34,-0.48 -0.48,-1.18 -0.14,-0.72 -0.14,-1.66 z"
         style="font-style:normal;font-variant:normal;font-weight:normal;font-stretch:normal;font-size:20px;font-family:'Ubuntu Mono';-inkscape-font-specification:'Ubuntu Mono';fill:#707070;fill-opacity:1"
         id="path1049"
         inkscape:connector-curvature="0" />
      <path
         d="m 307.77227,281.23996 q 0,1.1 -0.32,2 -0.3,0.88 -0.86,1.52 -0.56,0.64 -1.34,1 -0.78,0.34 -1.7,0.34 -0.9,0 -1.68,-0.34 -0.76,-0.36 -1.32,-1 -0.56,-0.64 -0.88,-1.52 -0.3,-0.9 -0.3,-2 0,-1.1 0.3,-2 0.32,-0.9 0.88,-1.52 0.56,-0.64 1.32,-0.98 0.78,-0.36 1.68,-0.36 0.92,0 1.7,0.36 0.78,0.34 1.34,0.98 0.56,0.62 0.86,1.52 0.32,0.9 0.32,2 z m -1.7,0 q 0,-1.58 -0.68,-2.48 -0.68,-0.92 -1.84,-0.92 -1.14,0 -1.82,0.92 -0.66,0.9 -0.66,2.48 0,1.56 0.66,2.48 0.68,0.9 1.82,0.9 1.16,0 1.84,-0.9 0.68,-0.92 0.68,-2.48 z"
         style="font-style:normal;font-variant:normal;font-weight:normal;font-stretch:normal;font-size:20px;font-family:'Ubuntu Mono';-inkscape-font-specification:'Ubuntu Mono';fill:#707070;fill-opacity:1"
         id="path1051"
         inkscape:connector-curvature="0" />
      <path
         d="m 309.99227,276.85996 q 0.9,-0.22 1.78,-0.34 0.9,-0.12 1.68,-0.12 1.86,0 2.8,0.96 0.96,0.96 0.96,3.08 v 5.44 h -1.64 v -5.14 q 0,-0.9 -0.16,-1.46 -0.16,-0.56 -0.46,-0.86 -0.28,-0.32 -0.7,-0.44 -0.4,-0.12 -0.88,-0.12 -0.4,0 -0.86,0.06 -0.44,0.04 -0.86,0.12 v 7.84 h -1.66 z"
         style="font-style:normal;font-variant:normal;font-weight:normal;font-stretch:normal;font-size:20px;font-family:'Ubuntu Mono';-inkscape-font-specification:'Ubuntu Mono';fill:#707070;fill-opacity:1"
         id="path1053"
         inkscape:connector-curvature="0" />
    </g>
    <g
       id="g2112"
       transform="translate(5.2916667,-2.6458334)">
      <g
         aria-label="Field 1"
         transform="matrix(0.26458333,0,0,0.26458333,-2.2678571,155.2589)"
         style="font-style:normal;font-variant:normal;font-weight:normal;font-stretch:normal;font-size:40px;line-height:1.25;font-family:'Ubuntu Mono';-inkscape-font-specification:'Ubuntu Mono';letter-spacing:0px;word-spacing:0px;fill:#000000;fill-opacity:1;stroke:none"
         id="flowRoot2090">
        <path
           d="m 210.99893,285.87996 v -16.50667 h 9.36 v 1.86667 h -7.17333 v 5.14666 h 6.32 v 1.84 h -6.32 v 7.65334 z"
           style="font-style:normal;font-variant:normal;font-weight:normal;font-stretch:normal;font-size:26.66666794px;font-family:'Ubuntu Mono';-inkscape-font-specification:'Ubuntu Mono'"
           id="path1005"
           inkscape:connector-curvature="0" />
        <path
           d="m 227.47893,271.58662 q -0.69333,0 -1.2,-0.48 -0.50666,-0.48 -0.50666,-1.30666 0,-0.82667 0.50666,-1.30667 0.50667,-0.48 1.2,-0.48 0.72,0 1.2,0.48 0.50667,0.48 0.50667,1.30667 0,0.82666 -0.50667,1.30666 -0.48,0.48 -1.2,0.48 z m -0.56,3.76 h -3.57333 v -1.84 h 5.76 v 7.6 q 0,1.84 0.50667,2.48 0.50666,0.61334 1.52,0.61334 0.77333,0 1.41333,-0.18667 0.66667,-0.18667 1.04,-0.4 l 0.32,1.86667 q -0.16,0.08 -0.45333,0.21333 -0.29334,0.10667 -0.69334,0.21333 -0.37333,0.10667 -0.85333,0.18667 -0.45333,0.08 -0.96,0.08 -1.17333,0 -1.94667,-0.32 -0.77333,-0.32 -1.25333,-0.96 -0.45333,-0.64 -0.64,-1.57333 -0.18667,-0.96 -0.18667,-2.21334 z"
           style="font-style:normal;font-variant:normal;font-weight:normal;font-stretch:normal;font-size:26.66666794px;font-family:'Ubuntu Mono';-inkscape-font-specification:'Ubuntu Mono'"
           id="path1007"
           inkscape:connector-curvature="0" />
        <path
           d="m 242.1456,273.21329 q 2.50667,0 3.86667,1.57333 1.36,1.54667 1.36,4.72 v 0.77334 h -8.85334 q 0.13334,1.92 1.25334,2.93333 1.14666,0.98667 3.2,0.98667 1.17333,0 2,-0.18667 0.82666,-0.18667 1.25333,-0.4 l 0.29333,1.86667 q -0.4,0.21333 -1.44,0.45333 -1.04,0.24 -2.34666,0.24 -1.6,0 -2.82667,-0.48 -1.2,-0.50667 -2,-1.36 -0.8,-0.85333 -1.2,-2.02667 -0.4,-1.2 -0.4,-2.58666 0,-1.65334 0.50667,-2.88 0.50666,-1.22667 1.33333,-2.02667 0.82667,-0.8 1.86667,-1.2 1.04,-0.4 2.13333,-0.4 z m 2.98667,5.28 q 0,-1.57333 -0.82667,-2.48 -0.82667,-0.93333 -2.18667,-0.93333 -0.77333,0 -1.41333,0.29333 -0.61333,0.29333 -1.06667,0.77333 -0.45333,0.48 -0.72,1.09334 -0.26666,0.61333 -0.34666,1.25333 z"
           style="font-style:normal;font-variant:normal;font-weight:normal;font-stretch:normal;font-size:26.66666794px;font-family:'Ubuntu Mono';-inkscape-font-specification:'Ubuntu Mono'"
           id="path1009"
           inkscape:connector-curvature="0" />
        <path
           d="m 257.5856,286.17329 q -1.17333,0 -1.94667,-0.32 -0.77333,-0.32 -1.22666,-0.96 -0.45334,-0.64 -0.64,-1.57333 -0.18667,-0.96 -0.18667,-2.21334 v -11.70666 h -3.57333 v -1.86667 h 5.76 v 13.57333 q 0,0.93334 0.10666,1.52 0.13334,0.58667 0.37334,0.96 0.26666,0.34667 0.64,0.48 0.37333,0.13334 0.88,0.13334 0.77333,0 1.44,-0.18667 0.66666,-0.18667 1.04,-0.4 l 0.32,1.86667 q -0.16,0.08 -0.45334,0.21333 -0.29333,0.10667 -0.69333,0.21333 -0.4,0.10667 -0.88,0.18667 -0.45333,0.08 -0.96,0.08 z"
           style="font-style:normal;font-variant:normal;font-weight:normal;font-stretch:normal;font-size:26.66666794px;font-family:'Ubuntu Mono';-inkscape-font-specification:'Ubuntu Mono'"
           id="path1011"
           inkscape:connector-curvature="0" />
        <path
           d="m 271.13227,276.11996 q -0.37333,-0.34667 -1.09333,-0.64 -0.72,-0.32 -1.49334,-0.32 -0.88,0 -1.52,0.34666 -0.61333,0.34667 -1.01333,0.96 -0.4,0.58667 -0.58667,1.44 -0.18667,0.82667 -0.18667,1.78667 0,2.16 1.01334,3.33333 1.01333,1.17334 2.64,1.17334 0.82667,0 1.38667,-0.08 0.58666,-0.08 0.85333,-0.16 z m 0,-8.34667 2.21333,-0.37333 v 18.13333 q -0.72,0.21333 -1.84,0.42667 -1.12,0.21333 -2.61333,0.21333 -1.33333,0 -2.42667,-0.45333 -1.09333,-0.45334 -1.86667,-1.28 -0.77333,-0.85334 -1.2,-2.05334 -0.42666,-1.2 -0.42666,-2.69333 0,-1.44 0.34666,-2.61333 0.37334,-1.2 1.06667,-2.05334 0.69333,-0.85333 1.65334,-1.33333 0.98666,-0.48 2.24,-0.48 0.98666,0 1.73333,0.24 0.74667,0.24 1.12,0.50667 z"
           style="font-style:normal;font-variant:normal;font-weight:normal;font-stretch:normal;font-size:26.66666794px;font-family:'Ubuntu Mono';-inkscape-font-specification:'Ubuntu Mono'"
           id="path1013"
           inkscape:connector-curvature="0" />
        <path
           d="m 290.57227,272.78662 q 1.36,-0.53333 2.64,-1.33333 1.28,-0.82667 2.37333,-2.08 h 1.54667 v 14.64 h 3.12 v 1.86667 h -8.88 v -1.86667 h 3.57333 v -11.57333 q -0.29333,0.26666 -0.72,0.56 -0.4,0.26666 -0.90667,0.53333 -0.48,0.26667 -1.01333,0.50667 -0.53333,0.24 -1.04,0.4 z"
           style="font-style:normal;font-variant:normal;font-weight:normal;font-stretch:normal;font-size:26.66666794px;font-family:'Ubuntu Mono';-inkscape-font-specification:'Ubuntu Mono'"
           id="path1015"
           inkscape:connector-curvature="0" />
      </g>
      <g
         aria-label="Ansower"
         transform="matrix(0.26458333,0,0,0.26458333,3.5529764,162.66722)"
         style="font-style:normal;font-variant:normal;font-weight:normal;font-stretch:normal;font-size:40px;line-height:1.25;font-family:'Ubuntu Mono';-inkscape-font-specification:'Ubuntu Mono';letter-spacing:0px;word-spacing:0px;fill:#000000;fill-opacity:1;stroke:none"
         id="flowRoot2098">
        <path
           d="m 216.65227,285.87996 -0.74,-3.24 h -4.76 l -0.72,3.24 h -1.68 q 0.34,-1.32 0.76,-2.86 0.42,-1.54 0.9,-3.16 0.5,-1.62 1.04,-3.24 0.54,-1.64 1.14,-3.12 h 2.04 q 0.58,1.48 1.1,3.12 0.54,1.62 1,3.24 0.48,1.62 0.9,3.16 0.42,1.54 0.76,2.86 z m -3.1,-10.94 q -0.46,1.26 -1,2.92 -0.54,1.66 -1.02,3.42 h 4 q -0.46,-1.8 -1,-3.46 -0.52,-1.68 -0.98,-2.88 z"
           style="font-style:normal;font-variant:normal;font-weight:normal;font-stretch:normal;font-size:20px;font-family:'Ubuntu Mono';-inkscape-font-specification:'Ubuntu Mono';fill:#707070;fill-opacity:1"
           id="path1018"
           inkscape:connector-curvature="0" />
        <path
           d="m 219.99227,276.85996 q 0.9,-0.22 1.78,-0.34 0.9,-0.12 1.68,-0.12 1.86,0 2.8,0.96 0.96,0.96 0.96,3.08 v 5.44 h -1.64 v -5.14 q 0,-0.9 -0.16,-1.46 -0.16,-0.56 -0.46,-0.86 -0.28,-0.32 -0.7,-0.44 -0.4,-0.12 -0.88,-0.12 -0.4,0 -0.86,0.06 -0.44,0.04 -0.86,0.12 v 7.84 h -1.66 z"
           style="font-style:normal;font-variant:normal;font-weight:normal;font-stretch:normal;font-size:20px;font-family:'Ubuntu Mono';-inkscape-font-specification:'Ubuntu Mono';fill:#707070;fill-opacity:1"
           id="path1020"
           inkscape:connector-curvature="0" />
        <path
           d="m 235.59227,283.55996 q 0,-0.5 -0.42,-0.82 -0.4,-0.32 -1.02,-0.56 -0.6,-0.24 -1.32,-0.46 -0.72,-0.24 -1.34,-0.58 -0.6,-0.34 -1.02,-0.84 -0.4,-0.5 -0.4,-1.3 0,-1.12 0.9,-1.86 0.92,-0.76 2.86,-0.76 0.76,0 1.56,0.12 0.82,0.1 1.4,0.28 l -0.3,1.48 q -0.16,-0.08 -0.44,-0.16 -0.28,-0.1 -0.64,-0.16 -0.36,-0.08 -0.78,-0.12 -0.4,-0.04 -0.78,-0.04 -2.16,0 -2.16,1.18 0,0.42 0.4,0.72 0.42,0.28 1.04,0.52 0.62,0.24 1.34,0.5 0.72,0.24 1.34,0.6 0.62,0.36 1.02,0.88 0.42,0.5 0.42,1.28 0,1.26 -0.98,1.96 -0.98,0.68 -3.1,0.68 -0.96,0 -1.76,-0.16 -0.8,-0.16 -1.52,-0.48 l 0.32,-1.5 q 0.7,0.32 1.46,0.54 0.78,0.2 1.66,0.2 2.26,0 2.26,-1.14 z"
           style="font-style:normal;font-variant:normal;font-weight:normal;font-stretch:normal;font-size:20px;font-family:'Ubuntu Mono';-inkscape-font-specification:'Ubuntu Mono';fill:#707070;fill-opacity:1"
           id="path1022"
           inkscape:connector-curvature="0" />
        <path
           d="m 247.77227,281.23996 q 0,1.1 -0.32,2 -0.3,0.88 -0.86,1.52 -0.56,0.64 -1.34,1 -0.78,0.34 -1.7,0.34 -0.9,0 -1.68,-0.34 -0.76,-0.36 -1.32,-1 -0.56,-0.64 -0.88,-1.52 -0.3,-0.9 -0.3,-2 0,-1.1 0.3,-2 0.32,-0.9 0.88,-1.52 0.56,-0.64 1.32,-0.98 0.78,-0.36 1.68,-0.36 0.92,0 1.7,0.36 0.78,0.34 1.34,0.98 0.56,0.62 0.86,1.52 0.32,0.9 0.32,2 z m -1.7,0 q 0,-1.58 -0.68,-2.48 -0.68,-0.92 -1.84,-0.92 -1.14,0 -1.82,0.92 -0.66,0.9 -0.66,2.48 0,1.56 0.66,2.48 0.68,0.9 1.82,0.9 1.16,0 1.84,-0.9 0.68,-0.92 0.68,-2.48 z"
           style="font-style:normal;font-variant:normal;font-weight:normal;font-stretch:normal;font-size:20px;font-family:'Ubuntu Mono';-inkscape-font-specification:'Ubuntu Mono';fill:#707070;fill-opacity:1"
           id="path1024"
           inkscape:connector-curvature="0" />
        <path
           d="m 255.43227,285.87996 q -0.3,-0.68 -0.52,-1.24 -0.22,-0.56 -0.44,-1.12 -0.2,-0.56 -0.42,-1.16 -0.2,-0.62 -0.48,-1.4 -0.28,0.78 -0.5,1.4 -0.22,0.6 -0.44,1.16 -0.2,0.56 -0.44,1.12 -0.22,0.56 -0.52,1.24 h -1.24 q -0.56,-2.46 -0.94,-4.86 -0.36,-2.42 -0.54,-4.42 h 1.56 q 0.06,0.78 0.12,1.54 0.08,0.74 0.18,1.56 0.1,0.82 0.22,1.78 0.14,0.96 0.3,2.16 0.32,-0.8 0.54,-1.4 0.22,-0.6 0.4,-1.14 0.18,-0.54 0.34,-1.1 0.18,-0.56 0.38,-1.26 h 1.24 q 0.2,0.7 0.36,1.26 0.16,0.56 0.34,1.1 0.18,0.54 0.38,1.14 0.2,0.6 0.5,1.38 0.18,-1.1 0.32,-2.04 0.14,-0.94 0.24,-1.76 0.1,-0.84 0.18,-1.62 0.08,-0.78 0.14,-1.6 h 1.5 q -0.1,1 -0.24,2.14 -0.14,1.14 -0.34,2.34 -0.2,1.2 -0.44,2.44 -0.24,1.22 -0.5,2.36 z"
           style="font-style:normal;font-variant:normal;font-weight:normal;font-stretch:normal;font-size:20px;font-family:'Ubuntu Mono';-inkscape-font-specification:'Ubuntu Mono';fill:#707070;fill-opacity:1"
           id="path1026"
           inkscape:connector-curvature="0" />
        <path
           d="m 263.75227,276.37996 q 1.88,0 2.9,1.18 1.02,1.16 1.02,3.54 v 0.58 h -6.64 q 0.1,1.44 0.94,2.2 0.86,0.74 2.4,0.74 0.88,0 1.5,-0.14 0.62,-0.14 0.94,-0.3 l 0.22,1.4 q -0.3,0.16 -1.08,0.34 -0.78,0.18 -1.76,0.18 -1.2,0 -2.12,-0.36 -0.9,-0.38 -1.5,-1.02 -0.6,-0.64 -0.9,-1.52 -0.3,-0.9 -0.3,-1.94 0,-1.24 0.38,-2.16 0.38,-0.92 1,-1.52 0.62,-0.6 1.4,-0.9 0.78,-0.3 1.6,-0.3 z m 2.24,3.96 q 0,-1.18 -0.62,-1.86 -0.62,-0.7 -1.64,-0.7 -0.58,0 -1.06,0.22 -0.46,0.22 -0.8,0.58 -0.34,0.36 -0.54,0.82 -0.2,0.46 -0.26,0.94 z"
           style="font-style:normal;font-variant:normal;font-weight:normal;font-stretch:normal;font-size:20px;font-family:'Ubuntu Mono';-inkscape-font-specification:'Ubuntu Mono';fill:#707070;fill-opacity:1"
           id="path1028"
           inkscape:connector-curvature="0" />
        <path
           d="m 270.71227,285.87996 v -8.78 q 2.04,-0.7 4.12,-0.7 0.64,0 1.22,0.06 0.58,0.04 1.28,0.2 l -0.3,1.46 q -0.64,-0.18 -1.14,-0.22 -0.48,-0.06 -1.06,-0.06 -1.22,0 -2.48,0.34 v 7.7 z"
           style="font-style:normal;font-variant:normal;font-weight:normal;font-stretch:normal;font-size:20px;font-family:'Ubuntu Mono';-inkscape-font-specification:'Ubuntu Mono';fill:#707070;fill-opacity:1"
           id="path1030"
           inkscape:connector-curvature="0" />
      </g>
    </g>
    <g
       transform="translate(5.2916667,18.520835)"
       id="g2130">
      <g
         aria-label="Field II"
         transform="matrix(0.26458333,0,0,0.26458333,-2.2678571,155.2589)"
         style="font-style:normal;font-variant:normal;font-weight:normal;font-stretch:normal;font-size:40px;line-height:1.25;font-family:'Ubuntu Mono';-inkscape-font-specification:'Ubuntu Mono';letter-spacing:0px;word-spacing:0px;fill:#000000;fill-opacity:1;stroke:none"
         id="flowRoot2120">
        <path
           d="m 210.99893,285.87996 v -16.50667 h 9.36 v 1.86667 h -7.17333 v 5.14666 h 6.32 v 1.84 h -6.32 v 7.65334 z"
           style="font-style:normal;font-variant:normal;font-weight:normal;font-stretch:normal;font-size:26.66666794px;font-family:'Ubuntu Mono';-inkscape-font-specification:'Ubuntu Mono'"
           id="path975"
           inkscape:connector-curvature="0" />
        <path
           d="m 227.47893,271.58662 q -0.69333,0 -1.2,-0.48 -0.50666,-0.48 -0.50666,-1.30666 0,-0.82667 0.50666,-1.30667 0.50667,-0.48 1.2,-0.48 0.72,0 1.2,0.48 0.50667,0.48 0.50667,1.30667 0,0.82666 -0.50667,1.30666 -0.48,0.48 -1.2,0.48 z m -0.56,3.76 h -3.57333 v -1.84 h 5.76 v 7.6 q 0,1.84 0.50667,2.48 0.50666,0.61334 1.52,0.61334 0.77333,0 1.41333,-0.18667 0.66667,-0.18667 1.04,-0.4 l 0.32,1.86667 q -0.16,0.08 -0.45333,0.21333 -0.29334,0.10667 -0.69334,0.21333 -0.37333,0.10667 -0.85333,0.18667 -0.45333,0.08 -0.96,0.08 -1.17333,0 -1.94667,-0.32 -0.77333,-0.32 -1.25333,-0.96 -0.45333,-0.64 -0.64,-1.57333 -0.18667,-0.96 -0.18667,-2.21334 z"
           style="font-style:normal;font-variant:normal;font-weight:normal;font-stretch:normal;font-size:26.66666794px;font-family:'Ubuntu Mono';-inkscape-font-specification:'Ubuntu Mono'"
           id="path977"
           inkscape:connector-curvature="0" />
        <path
           d="m 242.1456,273.21329 q 2.50667,0 3.86667,1.57333 1.36,1.54667 1.36,4.72 v 0.77334 h -8.85334 q 0.13334,1.92 1.25334,2.93333 1.14666,0.98667 3.2,0.98667 1.17333,0 2,-0.18667 0.82666,-0.18667 1.25333,-0.4 l 0.29333,1.86667 q -0.4,0.21333 -1.44,0.45333 -1.04,0.24 -2.34666,0.24 -1.6,0 -2.82667,-0.48 -1.2,-0.50667 -2,-1.36 -0.8,-0.85333 -1.2,-2.02667 -0.4,-1.2 -0.4,-2.58666 0,-1.65334 0.50667,-2.88 0.50666,-1.22667 1.33333,-2.02667 0.82667,-0.8 1.86667,-1.2 1.04,-0.4 2.13333,-0.4 z m 2.98667,5.28 q 0,-1.57333 -0.82667,-2.48 -0.82667,-0.93333 -2.18667,-0.93333 -0.77333,0 -1.41333,0.29333 -0.61333,0.29333 -1.06667,0.77333 -0.45333,0.48 -0.72,1.09334 -0.26666,0.61333 -0.34666,1.25333 z"
           style="font-style:normal;font-variant:normal;font-weight:normal;font-stretch:normal;font-size:26.66666794px;font-family:'Ubuntu Mono';-inkscape-font-specification:'Ubuntu Mono'"
           id="path979"
           inkscape:connector-curvature="0" />
        <path
           d="m 257.5856,286.17329 q -1.17333,0 -1.94667,-0.32 -0.77333,-0.32 -1.22666,-0.96 -0.45334,-0.64 -0.64,-1.57333 -0.18667,-0.96 -0.18667,-2.21334 v -11.70666 h -3.57333 v -1.86667 h 5.76 v 13.57333 q 0,0.93334 0.10666,1.52 0.13334,0.58667 0.37334,0.96 0.26666,0.34667 0.64,0.48 0.37333,0.13334 0.88,0.13334 0.77333,0 1.44,-0.18667 0.66666,-0.18667 1.04,-0.4 l 0.32,1.86667 q -0.16,0.08 -0.45334,0.21333 -0.29333,0.10667 -0.69333,0.21333 -0.4,0.10667 -0.88,0.18667 -0.45333,0.08 -0.96,0.08 z"
           style="font-style:normal;font-variant:normal;font-weight:normal;font-stretch:normal;font-size:26.66666794px;font-family:'Ubuntu Mono';-inkscape-font-specification:'Ubuntu Mono'"
           id="path981"
           inkscape:connector-curvature="0" />
        <path
           d="m 271.13227,276.11996 q -0.37333,-0.34667 -1.09333,-0.64 -0.72,-0.32 -1.49334,-0.32 -0.88,0 -1.52,0.34666 -0.61333,0.34667 -1.01333,0.96 -0.4,0.58667 -0.58667,1.44 -0.18667,0.82667 -0.18667,1.78667 0,2.16 1.01334,3.33333 1.01333,1.17334 2.64,1.17334 0.82667,0 1.38667,-0.08 0.58666,-0.08 0.85333,-0.16 z m 0,-8.34667 2.21333,-0.37333 v 18.13333 q -0.72,0.21333 -1.84,0.42667 -1.12,0.21333 -2.61333,0.21333 -1.33333,0 -2.42667,-0.45333 -1.09333,-0.45334 -1.86667,-1.28 -0.77333,-0.85334 -1.2,-2.05334 -0.42666,-1.2 -0.42666,-2.69333 0,-1.44 0.34666,-2.61333 0.37334,-1.2 1.06667,-2.05334 0.69333,-0.85333 1.65334,-1.33333 0.98666,-0.48 2.24,-0.48 0.98666,0 1.73333,0.24 0.74667,0.24 1.12,0.50667 z"
           style="font-style:normal;font-variant:normal;font-weight:normal;font-stretch:normal;font-size:26.66666794px;font-family:'Ubuntu Mono';-inkscape-font-specification:'Ubuntu Mono'"
           id="path983"
           inkscape:connector-curvature="0" />
        <path
           d="m 296.33227,271.23996 v 12.77333 h 3.2 v 1.86667 h -8.58667 v -1.86667 h 3.2 v -12.77333 h -3.2 v -1.86667 h 8.58667 v 1.86667 z"
           style="font-style:normal;font-variant:normal;font-weight:normal;font-stretch:normal;font-size:26.66666794px;font-family:'Ubuntu Mono';-inkscape-font-specification:'Ubuntu Mono'"
           id="path985"
           inkscape:connector-curvature="0" />
        <path
           d="m 309.6656,271.23996 v 12.77333 h 3.2 v 1.86667 h -8.58667 v -1.86667 h 3.20001 v -12.77333 h -3.20001 v -1.86667 h 8.58667 v 1.86667 z"
           style="font-style:normal;font-variant:normal;font-weight:normal;font-stretch:normal;font-size:26.66666794px;font-family:'Ubuntu Mono';-inkscape-font-specification:'Ubuntu Mono'"
           id="path987"
           inkscape:connector-curvature="0" />
      </g>
      <g
         aria-label="Ansower"
         transform="matrix(0.26458333,0,0,0.26458333,3.5529764,162.66722)"
         style="font-style:normal;font-variant:normal;font-weight:normal;font-stretch:normal;font-size:40px;line-height:1.25;font-family:'Ubuntu Mono';-inkscape-font-specification:'Ubuntu Mono';letter-spacing:0px;word-spacing:0px;fill:#000000;fill-opacity:1;stroke:none"
         id="flowRoot2128">
        <path
           d="m 216.65227,285.87996 -0.74,-3.24 h -4.76 l -0.72,3.24 h -1.68 q 0.34,-1.32 0.76,-2.86 0.42,-1.54 0.9,-3.16 0.5,-1.62 1.04,-3.24 0.54,-1.64 1.14,-3.12 h 2.04 q 0.58,1.48 1.1,3.12 0.54,1.62 1,3.24 0.48,1.62 0.9,3.16 0.42,1.54 0.76,2.86 z m -3.1,-10.94 q -0.46,1.26 -1,2.92 -0.54,1.66 -1.02,3.42 h 4 q -0.46,-1.8 -1,-3.46 -0.52,-1.68 -0.98,-2.88 z"
           style="font-style:normal;font-variant:normal;font-weight:normal;font-stretch:normal;font-size:20px;font-family:'Ubuntu Mono';-inkscape-font-specification:'Ubuntu Mono';fill:#707070;fill-opacity:1"
           id="path990"
           inkscape:connector-curvature="0" />
        <path
           d="m 219.99227,276.85996 q 0.9,-0.22 1.78,-0.34 0.9,-0.12 1.68,-0.12 1.86,0 2.8,0.96 0.96,0.96 0.96,3.08 v 5.44 h -1.64 v -5.14 q 0,-0.9 -0.16,-1.46 -0.16,-0.56 -0.46,-0.86 -0.28,-0.32 -0.7,-0.44 -0.4,-0.12 -0.88,-0.12 -0.4,0 -0.86,0.06 -0.44,0.04 -0.86,0.12 v 7.84 h -1.66 z"
           style="font-style:normal;font-variant:normal;font-weight:normal;font-stretch:normal;font-size:20px;font-family:'Ubuntu Mono';-inkscape-font-specification:'Ubuntu Mono';fill:#707070;fill-opacity:1"
           id="path992"
           inkscape:connector-curvature="0" />
        <path
           d="m 235.59227,283.55996 q 0,-0.5 -0.42,-0.82 -0.4,-0.32 -1.02,-0.56 -0.6,-0.24 -1.32,-0.46 -0.72,-0.24 -1.34,-0.58 -0.6,-0.34 -1.02,-0.84 -0.4,-0.5 -0.4,-1.3 0,-1.12 0.9,-1.86 0.92,-0.76 2.86,-0.76 0.76,0 1.56,0.12 0.82,0.1 1.4,0.28 l -0.3,1.48 q -0.16,-0.08 -0.44,-0.16 -0.28,-0.1 -0.64,-0.16 -0.36,-0.08 -0.78,-0.12 -0.4,-0.04 -0.78,-0.04 -2.16,0 -2.16,1.18 0,0.42 0.4,0.72 0.42,0.28 1.04,0.52 0.62,0.24 1.34,0.5 0.72,0.24 1.34,0.6 0.62,0.36 1.02,0.88 0.42,0.5 0.42,1.28 0,1.26 -0.98,1.96 -0.98,0.68 -3.1,0.68 -0.96,0 -1.76,-0.16 -0.8,-0.16 -1.52,-0.48 l 0.32,-1.5 q 0.7,0.32 1.46,0.54 0.78,0.2 1.66,0.2 2.26,0 2.26,-1.14 z"
           style="font-style:normal;font-variant:normal;font-weight:normal;font-stretch:normal;font-size:20px;font-family:'Ubuntu Mono';-inkscape-font-specification:'Ubuntu Mono';fill:#707070;fill-opacity:1"
           id="path994"
           inkscape:connector-curvature="0" />
        <path
           d="m 247.77227,281.23996 q 0,1.1 -0.32,2 -0.3,0.88 -0.86,1.52 -0.56,0.64 -1.34,1 -0.78,0.34 -1.7,0.34 -0.9,0 -1.68,-0.34 -0.76,-0.36 -1.32,-1 -0.56,-0.64 -0.88,-1.52 -0.3,-0.9 -0.3,-2 0,-1.1 0.3,-2 0.32,-0.9 0.88,-1.52 0.56,-0.64 1.32,-0.98 0.78,-0.36 1.68,-0.36 0.92,0 1.7,0.36 0.78,0.34 1.34,0.98 0.56,0.62 0.86,1.52 0.32,0.9 0.32,2 z m -1.7,0 q 0,-1.58 -0.68,-2.48 -0.68,-0.92 -1.84,-0.92 -1.14,0 -1.82,0.92 -0.66,0.9 -0.66,2.48 0,1.56 0.66,2.48 0.68,0.9 1.82,0.9 1.16,0 1.84,-0.9 0.68,-0.92 0.68,-2.48 z"
           style="font-style:normal;font-variant:normal;font-weight:normal;font-stretch:normal;font-size:20px;font-family:'Ubuntu Mono';-inkscape-font-specification:'Ubuntu Mono';fill:#707070;fill-opacity:1"
           id="path996"
           inkscape:connector-curvature="0" />
        <path
           d="m 255.43227,285.87996 q -0.3,-0.68 -0.52,-1.24 -0.22,-0.56 -0.44,-1.12 -0.2,-0.56 -0.42,-1.16 -0.2,-0.62 -0.48,-1.4 -0.28,0.78 -0.5,1.4 -0.22,0.6 -0.44,1.16 -0.2,0.56 -0.44,1.12 -0.22,0.56 -0.52,1.24 h -1.24 q -0.56,-2.46 -0.94,-4.86 -0.36,-2.42 -0.54,-4.42 h 1.56 q 0.06,0.78 0.12,1.54 0.08,0.74 0.18,1.56 0.1,0.82 0.22,1.78 0.14,0.96 0.3,2.16 0.32,-0.8 0.54,-1.4 0.22,-0.6 0.4,-1.14 0.18,-0.54 0.34,-1.1 0.18,-0.56 0.38,-1.26 h 1.24 q 0.2,0.7 0.36,1.26 0.16,0.56 0.34,1.1 0.18,0.54 0.38,1.14 0.2,0.6 0.5,1.38 0.18,-1.1 0.32,-2.04 0.14,-0.94 0.24,-1.76 0.1,-0.84 0.18,-1.62 0.08,-0.78 0.14,-1.6 h 1.5 q -0.1,1 -0.24,2.14 -0.14,1.14 -0.34,2.34 -0.2,1.2 -0.44,2.44 -0.24,1.22 -0.5,2.36 z"
           style="font-style:normal;font-variant:normal;font-weight:normal;font-stretch:normal;font-size:20px;font-family:'Ubuntu Mono';-inkscape-font-specification:'Ubuntu Mono';fill:#707070;fill-opacity:1"
           id="path998"
           inkscape:connector-curvature="0" />
        <path
           d="m 263.75227,276.37996 q 1.88,0 2.9,1.18 1.02,1.16 1.02,3.54 v 0.58 h -6.64 q 0.1,1.44 0.94,2.2 0.86,0.74 2.4,0.74 0.88,0 1.5,-0.14 0.62,-0.14 0.94,-0.3 l 0.22,1.4 q -0.3,0.16 -1.08,0.34 -0.78,0.18 -1.76,0.18 -1.2,0 -2.12,-0.36 -0.9,-0.38 -1.5,-1.02 -0.6,-0.64 -0.9,-1.52 -0.3,-0.9 -0.3,-1.94 0,-1.24 0.38,-2.16 0.38,-0.92 1,-1.52 0.62,-0.6 1.4,-0.9 0.78,-0.3 1.6,-0.3 z m 2.24,3.96 q 0,-1.18 -0.62,-1.86 -0.62,-0.7 -1.64,-0.7 -0.58,0 -1.06,0.22 -0.46,0.22 -0.8,0.58 -0.34,0.36 -0.54,0.82 -0.2,0.46 -0.26,0.94 z"
           style="font-style:normal;font-variant:normal;font-weight:normal;font-stretch:normal;font-size:20px;font-family:'Ubuntu Mono';-inkscape-font-specification:'Ubuntu Mono';fill:#707070;fill-opacity:1"
           id="path1000"
           inkscape:connector-curvature="0" />
        <path
           d="m 270.71227,285.87996 v -8.78 q 2.04,-0.7 4.12,-0.7 0.64,0 1.22,0.06 0.58,0.04 1.28,0.2 l -0.3,1.46 q -0.64,-0.18 -1.14,-0.22 -0.48,-0.06 -1.06,-0.06 -1.22,0 -2.48,0.34 v 7.7 z"
           style="font-style:normal;font-variant:normal;font-weight:normal;font-stretch:normal;font-size:20px;font-family:'Ubuntu Mono';-inkscape-font-specification:'Ubuntu Mono';fill:#707070;fill-opacity:1"
           id="path1002"
           inkscape:connector-curvature="0" />
      </g>
    </g>
    <g
       id="g2148"
       transform="translate(5.2916667,39.687503)">
      <g
         aria-label="Field Three"
         transform="matrix(0.26458333,0,0,0.26458333,-2.2678571,155.2589)"
         style="font-style:normal;font-variant:normal;font-weight:normal;font-stretch:normal;font-size:40px;line-height:1.25;font-family:'Ubuntu Mono';-inkscape-font-specification:'Ubuntu Mono';letter-spacing:0px;word-spacing:0px;fill:#000000;fill-opacity:1;stroke:none"
         id="flowRoot2138">
        <path
           d="m 210.99893,285.87996 v -16.50667 h 9.36 v 1.86667 h -7.17333 v 5.14666 h 6.32 v 1.84 h -6.32 v 7.65334 z"
           style="font-style:normal;font-variant:normal;font-weight:normal;font-stretch:normal;font-size:26.66666794px;font-family:'Ubuntu Mono';-inkscape-font-specification:'Ubuntu Mono'"
           id="path939"
           inkscape:connector-curvature="0" />
        <path
           d="m 227.47893,271.58662 q -0.69333,0 -1.2,-0.48 -0.50666,-0.48 -0.50666,-1.30666 0,-0.82667 0.50666,-1.30667 0.50667,-0.48 1.2,-0.48 0.72,0 1.2,0.48 0.50667,0.48 0.50667,1.30667 0,0.82666 -0.50667,1.30666 -0.48,0.48 -1.2,0.48 z m -0.56,3.76 h -3.57333 v -1.84 h 5.76 v 7.6 q 0,1.84 0.50667,2.48 0.50666,0.61334 1.52,0.61334 0.77333,0 1.41333,-0.18667 0.66667,-0.18667 1.04,-0.4 l 0.32,1.86667 q -0.16,0.08 -0.45333,0.21333 -0.29334,0.10667 -0.69334,0.21333 -0.37333,0.10667 -0.85333,0.18667 -0.45333,0.08 -0.96,0.08 -1.17333,0 -1.94667,-0.32 -0.77333,-0.32 -1.25333,-0.96 -0.45333,-0.64 -0.64,-1.57333 -0.18667,-0.96 -0.18667,-2.21334 z"
           style="font-style:normal;font-variant:normal;font-weight:normal;font-stretch:normal;font-size:26.66666794px;font-family:'Ubuntu Mono';-inkscape-font-specification:'Ubuntu Mono'"
           id="path941"
           inkscape:connector-curvature="0" />
        <path
           d="m 242.1456,273.21329 q 2.50667,0 3.86667,1.57333 1.36,1.54667 1.36,4.72 v 0.77334 h -8.85334 q 0.13334,1.92 1.25334,2.93333 1.14666,0.98667 3.2,0.98667 1.17333,0 2,-0.18667 0.82666,-0.18667 1.25333,-0.4 l 0.29333,1.86667 q -0.4,0.21333 -1.44,0.45333 -1.04,0.24 -2.34666,0.24 -1.6,0 -2.82667,-0.48 -1.2,-0.50667 -2,-1.36 -0.8,-0.85333 -1.2,-2.02667 -0.4,-1.2 -0.4,-2.58666 0,-1.65334 0.50667,-2.88 0.50666,-1.22667 1.33333,-2.02667 0.82667,-0.8 1.86667,-1.2 1.04,-0.4 2.13333,-0.4 z m 2.98667,5.28 q 0,-1.57333 -0.82667,-2.48 -0.82667,-0.93333 -2.18667,-0.93333 -0.77333,0 -1.41333,0.29333 -0.61333,0.29333 -1.06667,0.77333 -0.45333,0.48 -0.72,1.09334 -0.26666,0.61333 -0.34666,1.25333 z"
           style="font-style:normal;font-variant:normal;font-weight:normal;font-stretch:normal;font-size:26.66666794px;font-family:'Ubuntu Mono';-inkscape-font-specification:'Ubuntu Mono'"
           id="path943"
           inkscape:connector-curvature="0" />
        <path
           d="m 257.5856,286.17329 q -1.17333,0 -1.94667,-0.32 -0.77333,-0.32 -1.22666,-0.96 -0.45334,-0.64 -0.64,-1.57333 -0.18667,-0.96 -0.18667,-2.21334 v -11.70666 h -3.57333 v -1.86667 h 5.76 v 13.57333 q 0,0.93334 0.10666,1.52 0.13334,0.58667 0.37334,0.96 0.26666,0.34667 0.64,0.48 0.37333,0.13334 0.88,0.13334 0.77333,0 1.44,-0.18667 0.66666,-0.18667 1.04,-0.4 l 0.32,1.86667 q -0.16,0.08 -0.45334,0.21333 -0.29333,0.10667 -0.69333,0.21333 -0.4,0.10667 -0.88,0.18667 -0.45333,0.08 -0.96,0.08 z"
           style="font-style:normal;font-variant:normal;font-weight:normal;font-stretch:normal;font-size:26.66666794px;font-family:'Ubuntu Mono';-inkscape-font-specification:'Ubuntu Mono'"
           id="path945"
           inkscape:connector-curvature="0" />
        <path
           d="m 271.13227,276.11996 q -0.37333,-0.34667 -1.09333,-0.64 -0.72,-0.32 -1.49334,-0.32 -0.88,0 -1.52,0.34666 -0.61333,0.34667 -1.01333,0.96 -0.4,0.58667 -0.58667,1.44 -0.18667,0.82667 -0.18667,1.78667 0,2.16 1.01334,3.33333 1.01333,1.17334 2.64,1.17334 0.82667,0 1.38667,-0.08 0.58666,-0.08 0.85333,-0.16 z m 0,-8.34667 2.21333,-0.37333 v 18.13333 q -0.72,0.21333 -1.84,0.42667 -1.12,0.21333 -2.61333,0.21333 -1.33333,0 -2.42667,-0.45333 -1.09333,-0.45334 -1.86667,-1.28 -0.77333,-0.85334 -1.2,-2.05334 -0.42666,-1.2 -0.42666,-2.69333 0,-1.44 0.34666,-2.61333 0.37334,-1.2 1.06667,-2.05334 0.69333,-0.85333 1.65334,-1.33333 0.98666,-0.48 2.24,-0.48 0.98666,0 1.73333,0.24 0.74667,0.24 1.12,0.50667 z"
           style="font-style:normal;font-variant:normal;font-weight:normal;font-stretch:normal;font-size:26.66666794px;font-family:'Ubuntu Mono';-inkscape-font-specification:'Ubuntu Mono'"
           id="path947"
           inkscape:connector-curvature="0" />
        <path
           d="m 300.8656,269.37329 v 1.86667 h -4.53333 v 14.64 h -2.18667 v -14.64 h -4.53333 v -1.86667 z"
           style="font-style:normal;font-variant:normal;font-weight:normal;font-stretch:normal;font-size:26.66666794px;font-family:'Ubuntu Mono';-inkscape-font-specification:'Ubuntu Mono'"
           id="path949"
           inkscape:connector-curvature="0" />
        <path
           d="m 303.79893,285.87996 v -18.10667 l 2.21334,-0.37333 v 6.29333 q 0.53333,-0.21333 1.2,-0.32 0.66667,-0.13333 1.30667,-0.13333 1.41333,0 2.34666,0.42666 0.96,0.4 1.52,1.14667 0.56,0.74667 0.8,1.78667 0.24,1.04 0.24,2.29333 v 6.98667 h -2.18666 v -6.50667 q 0,-2.29333 -0.64,-3.22667 -0.64,-0.96 -2.29334,-0.96 -0.69333,0 -1.36,0.16 -0.64,0.13334 -0.93333,0.26667 v 10.26667 z"
           style="font-style:normal;font-variant:normal;font-weight:normal;font-stretch:normal;font-size:26.66666794px;font-family:'Ubuntu Mono';-inkscape-font-specification:'Ubuntu Mono'"
           id="path951"
           inkscape:connector-curvature="0" />
        <path
           d="m 318.09227,285.87996 v -11.70667 q 2.72,-0.93333 5.49333,-0.93333 0.85334,0 1.62667,0.08 0.77333,0.0533 1.70667,0.26666 l -0.4,1.94667 q -0.85334,-0.24 -1.52,-0.29333 -0.64,-0.08 -1.41334,-0.08 -1.62666,0 -3.30666,0.45333 v 10.26667 z"
           style="font-style:normal;font-variant:normal;font-weight:normal;font-stretch:normal;font-size:26.66666794px;font-family:'Ubuntu Mono';-inkscape-font-specification:'Ubuntu Mono'"
           id="path953"
           inkscape:connector-curvature="0" />
        <path
           d="m 335.47894,273.21329 q 2.50667,0 3.86667,1.57333 1.36,1.54667 1.36,4.72 v 0.77334 h -8.85334 q 0.13334,1.92 1.25334,2.93333 1.14666,0.98667 3.2,0.98667 1.17333,0 2,-0.18667 0.82666,-0.18667 1.25333,-0.4 l 0.29333,1.86667 q -0.4,0.21333 -1.44,0.45333 -1.04,0.24 -2.34666,0.24 -1.6,0 -2.82667,-0.48 -1.2,-0.50667 -2,-1.36 -0.8,-0.85333 -1.2,-2.02667 -0.4,-1.2 -0.4,-2.58666 0,-1.65334 0.50667,-2.88 0.50666,-1.22667 1.33333,-2.02667 0.82667,-0.8 1.86667,-1.2 1.04,-0.4 2.13333,-0.4 z m 2.98667,5.28 q 0,-1.57333 -0.82667,-2.48 -0.82667,-0.93333 -2.18667,-0.93333 -0.77333,0 -1.41333,0.29333 -0.61333,0.29333 -1.06667,0.77333 -0.45333,0.48 -0.72,1.09334 -0.26666,0.61333 -0.34666,1.25333 z"
           style="font-style:normal;font-variant:normal;font-weight:normal;font-stretch:normal;font-size:26.66666794px;font-family:'Ubuntu Mono';-inkscape-font-specification:'Ubuntu Mono'"
           id="path955"
           inkscape:connector-curvature="0" />
        <path
           d="m 348.81228,273.21329 q 2.50666,0 3.86666,1.57333 1.36,1.54667 1.36,4.72 v 0.77334 h -8.85333 q 0.13333,1.92 1.25333,2.93333 1.14667,0.98667 3.2,0.98667 1.17334,0 2,-0.18667 0.82667,-0.18667 1.25334,-0.4 l 0.29333,1.86667 q -0.4,0.21333 -1.44,0.45333 -1.04,0.24 -2.34667,0.24 -1.6,0 -2.82666,-0.48 -1.2,-0.50667 -2,-1.36 -0.8,-0.85333 -1.2,-2.02667 -0.4,-1.2 -0.4,-2.58666 0,-1.65334 0.50666,-2.88 0.50667,-1.22667 1.33334,-2.02667 0.82666,-0.8 1.86666,-1.2 1.04,-0.4 2.13334,-0.4 z m 2.98666,5.28 q 0,-1.57333 -0.82666,-2.48 -0.82667,-0.93333 -2.18667,-0.93333 -0.77333,0 -1.41333,0.29333 -0.61334,0.29333 -1.06667,0.77333 -0.45333,0.48 -0.72,1.09334 -0.26667,0.61333 -0.34667,1.25333 z"
           style="font-style:normal;font-variant:normal;font-weight:normal;font-stretch:normal;font-size:26.66666794px;font-family:'Ubuntu Mono';-inkscape-font-specification:'Ubuntu Mono'"
           id="path957"
           inkscape:connector-curvature="0" />
      </g>
      <g
         aria-label="Ansower"
         transform="matrix(0.26458333,0,0,0.26458333,3.5529764,162.66722)"
         style="font-style:normal;font-variant:normal;font-weight:normal;font-stretch:normal;font-size:40px;line-height:1.25;font-family:'Ubuntu Mono';-inkscape-font-specification:'Ubuntu Mono';letter-spacing:0px;word-spacing:0px;fill:#000000;fill-opacity:1;stroke:none"
         id="flowRoot2146">
        <path
           d="m 216.65227,285.87996 -0.74,-3.24 h -4.76 l -0.72,3.24 h -1.68 q 0.34,-1.32 0.76,-2.86 0.42,-1.54 0.9,-3.16 0.5,-1.62 1.04,-3.24 0.54,-1.64 1.14,-3.12 h 2.04 q 0.58,1.48 1.1,3.12 0.54,1.62 1,3.24 0.48,1.62 0.9,3.16 0.42,1.54 0.76,2.86 z m -3.1,-10.94 q -0.46,1.26 -1,2.92 -0.54,1.66 -1.02,3.42 h 4 q -0.46,-1.8 -1,-3.46 -0.52,-1.68 -0.98,-2.88 z"
           style="font-style:normal;font-variant:normal;font-weight:normal;font-stretch:normal;font-size:20px;font-family:'Ubuntu Mono';-inkscape-font-specification:'Ubuntu Mono';fill:#707070;fill-opacity:1"
           id="path960"
           inkscape:connector-curvature="0" />
        <path
           d="m 219.99227,276.85996 q 0.9,-0.22 1.78,-0.34 0.9,-0.12 1.68,-0.12 1.86,0 2.8,0.96 0.96,0.96 0.96,3.08 v 5.44 h -1.64 v -5.14 q 0,-0.9 -0.16,-1.46 -0.16,-0.56 -0.46,-0.86 -0.28,-0.32 -0.7,-0.44 -0.4,-0.12 -0.88,-0.12 -0.4,0 -0.86,0.06 -0.44,0.04 -0.86,0.12 v 7.84 h -1.66 z"
           style="font-style:normal;font-variant:normal;font-weight:normal;font-stretch:normal;font-size:20px;font-family:'Ubuntu Mono';-inkscape-font-specification:'Ubuntu Mono';fill:#707070;fill-opacity:1"
           id="path962"
           inkscape:connector-curvature="0" />
        <path
           d="m 235.59227,283.55996 q 0,-0.5 -0.42,-0.82 -0.4,-0.32 -1.02,-0.56 -0.6,-0.24 -1.32,-0.46 -0.72,-0.24 -1.34,-0.58 -0.6,-0.34 -1.02,-0.84 -0.4,-0.5 -0.4,-1.3 0,-1.12 0.9,-1.86 0.92,-0.76 2.86,-0.76 0.76,0 1.56,0.12 0.82,0.1 1.4,0.28 l -0.3,1.48 q -0.16,-0.08 -0.44,-0.16 -0.28,-0.1 -0.64,-0.16 -0.36,-0.08 -0.78,-0.12 -0.4,-0.04 -0.78,-0.04 -2.16,0 -2.16,1.18 0,0.42 0.4,0.72 0.42,0.28 1.04,0.52 0.62,0.24 1.34,0.5 0.72,0.24 1.34,0.6 0.62,0.36 1.02,0.88 0.42,0.5 0.42,1.28 0,1.26 -0.98,1.96 -0.98,0.68 -3.1,0.68 -0.96,0 -1.76,-0.16 -0.8,-0.16 -1.52,-0.48 l 0.32,-1.5 q 0.7,0.32 1.46,0.54 0.78,0.2 1.66,0.2 2.26,0 2.26,-1.14 z"
           style="font-style:normal;font-variant:normal;font-weight:normal;font-stretch:normal;font-size:20px;font-family:'Ubuntu Mono';-inkscape-font-specification:'Ubuntu Mono';fill:#707070;fill-opacity:1"
           id="path964"
           inkscape:connector-curvature="0" />
        <path
           d="m 247.77227,281.23996 q 0,1.1 -0.32,2 -0.3,0.88 -0.86,1.52 -0.56,0.64 -1.34,1 -0.78,0.34 -1.7,0.34 -0.9,0 -1.68,-0.34 -0.76,-0.36 -1.32,-1 -0.56,-0.64 -0.88,-1.52 -0.3,-0.9 -0.3,-2 0,-1.1 0.3,-2 0.32,-0.9 0.88,-1.52 0.56,-0.64 1.32,-0.98 0.78,-0.36 1.68,-0.36 0.92,0 1.7,0.36 0.78,0.34 1.34,0.98 0.56,0.62 0.86,1.52 0.32,0.9 0.32,2 z m -1.7,0 q 0,-1.58 -0.68,-2.48 -0.68,-0.92 -1.84,-0.92 -1.14,0 -1.82,0.92 -0.66,0.9 -0.66,2.48 0,1.56 0.66,2.48 0.68,0.9 1.82,0.9 1.16,0 1.84,-0.9 0.68,-0.92 0.68,-2.48 z"
           style="font-style:normal;font-variant:normal;font-weight:normal;font-stretch:normal;font-size:20px;font-family:'Ubuntu Mono';-inkscape-font-specification:'Ubuntu Mono';fill:#707070;fill-opacity:1"
           id="path966"
           inkscape:connector-curvature="0" />
        <path
           d="m 255.43227,285.87996 q -0.3,-0.68 -0.52,-1.24 -0.22,-0.56 -0.44,-1.12 -0.2,-0.56 -0.42,-1.16 -0.2,-0.62 -0.48,-1.4 -0.28,0.78 -0.5,1.4 -0.22,0.6 -0.44,1.16 -0.2,0.56 -0.44,1.12 -0.22,0.56 -0.52,1.24 h -1.24 q -0.56,-2.46 -0.94,-4.86 -0.36,-2.42 -0.54,-4.42 h 1.56 q 0.06,0.78 0.12,1.54 0.08,0.74 0.18,1.56 0.1,0.82 0.22,1.78 0.14,0.96 0.3,2.16 0.32,-0.8 0.54,-1.4 0.22,-0.6 0.4,-1.14 0.18,-0.54 0.34,-1.1 0.18,-0.56 0.38,-1.26 h 1.24 q 0.2,0.7 0.36,1.26 0.16,0.56 0.34,1.1 0.18,0.54 0.38,1.14 0.2,0.6 0.5,1.38 0.18,-1.1 0.32,-2.04 0.14,-0.94 0.24,-1.76 0.1,-0.84 0.18,-1.62 0.08,-0.78 0.14,-1.6 h 1.5 q -0.1,1 -0.24,2.14 -0.14,1.14 -0.34,2.34 -0.2,1.2 -0.44,2.44 -0.24,1.22 -0.5,2.36 z"
           style="font-style:normal;font-variant:normal;font-weight:normal;font-stretch:normal;font-size:20px;font-family:'Ubuntu Mono';-inkscape-font-specification:'Ubuntu Mono';fill:#707070;fill-opacity:1"
           id="path968"
           inkscape:connector-curvature="0" />
        <path
           d="m 263.75227,276.37996 q 1.88,0 2.9,1.18 1.02,1.16 1.02,3.54 v 0.58 h -6.64 q 0.1,1.44 0.94,2.2 0.86,0.74 2.4,0.74 0.88,0 1.5,-0.14 0.62,-0.14 0.94,-0.3 l 0.22,1.4 q -0.3,0.16 -1.08,0.34 -0.78,0.18 -1.76,0.18 -1.2,0 -2.12,-0.36 -0.9,-0.38 -1.5,-1.02 -0.6,-0.64 -0.9,-1.52 -0.3,-0.9 -0.3,-1.94 0,-1.24 0.38,-2.16 0.38,-0.92 1,-1.52 0.62,-0.6 1.4,-0.9 0.78,-0.3 1.6,-0.3 z m 2.24,3.96 q 0,-1.18 -0.62,-1.86 -0.62,-0.7 -1.64,-0.7 -0.58,0 -1.06,0.22 -0.46,0.22 -0.8,0.58 -0.34,0.36 -0.54,0.82 -0.2,0.46 -0.26,0.94 z"
           style="font-style:normal;font-variant:normal;font-weight:normal;font-stretch:normal;font-size:20px;font-family:'Ubuntu Mono';-inkscape-font-specification:'Ubuntu Mono';fill:#707070;fill-opacity:1"
           id="path970"
           inkscape:connector-curvature="0" />
        <path
           d="m 270.71227,285.87996 v -8.78 q 2.04,-0.7 4.12,-0.7 0.64,0 1.22,0.06 0.58,0.04 1.28,0.2 l -0.3,1.46 q -0.64,-0.18 -1.14,-0.22 -0.48,-0.06 -1.06,-0.06 -1.22,0 -2.48,0.34 v 7.7 z"
           style="font-style:normal;font-variant:normal;font-weight:normal;font-stretch:normal;font-size:20px;font-family:'Ubuntu Mono';-inkscape-font-specification:'Ubuntu Mono';fill:#707070;fill-opacity:1"
           id="path972"
           inkscape:connector-curvature="0" />
      </g>
    </g>
    <rect
       style="opacity:1;fill:#e7e7e7;fill-opacity:1;stroke:none;stroke-width:0.79375005;stroke-linecap:round;stroke-linejoin:round;stroke-miterlimit:4;stroke-dasharray:none;stroke-opacity:1"
       id="rect1011"
       width="211.66667"
       height="9.260417"
       x="0"
       y="287.73959" />
  </g>
</svg>
