<?xml version="1.0" encoding="UTF-8" standalone="no"?>
<svg
   xmlns:dc="http://purl.org/dc/elements/1.1/"
   xmlns:cc="http://creativecommons.org/ns#"
   xmlns:rdf="http://www.w3.org/1999/02/22-rdf-syntax-ns#"
   xmlns:svg="http://www.w3.org/2000/svg"
   xmlns="http://www.w3.org/2000/svg"
   xmlns:sodipodi="http://sodipodi.sourceforge.net/DTD/sodipodi-0.dtd"
   xmlns:inkscape="http://www.inkscape.org/namespaces/inkscape"
   width="24"
   height="24"
   viewBox="0 0 24 24"
   version="1.1"
   id="svg2092"
   sodipodi:docname="section_gray.svg"
   inkscape:version="0.92.4 (f8dce91, 2019-08-02)">
  <metadata
     id="metadata2098">
    <rdf:RDF>
      <cc:Work
         rdf:about="">
        <dc:format>image/svg+xml</dc:format>
        <dc:type
           rdf:resource="http://purl.org/dc/dcmitype/StillImage" />
        <dc:title></dc:title>
      </cc:Work>
    </rdf:RDF>
  </metadata>
  <defs
     id="defs2096" />
  <sodipodi:namedview
     pagecolor="#ffffff"
     bordercolor="#666666"
     borderopacity="1"
     objecttolerance="10"
     gridtolerance="10"
     guidetolerance="10"
     inkscape:pageopacity="0"
     inkscape:pageshadow="2"
     inkscape:window-width="1366"
     inkscape:window-height="704"
     id="namedview2094"
     showgrid="false"
     inkscape:zoom="9.8333333"
     inkscape:cx="-2.4351389"
     inkscape:cy="16.946235"
     inkscape:window-x="0"
     inkscape:window-y="27"
     inkscape:window-maximized="1"
     inkscape:current-layer="svg2092" />
  <path
     fill="none"
     d="M0 0h24v24H0V0z"
     id="path2088" />
  <path
     d="M 19,5 V 9.3595458 H 5 V 5 H 19 M 19,3 H 5 C 3.9,3 3,3.9 3,5 v 4.3595458 c 0,1.1000002 0.9,2.0000002 2,2.0000002 h 14 c 1.1,0 2,-0.9 2,-2.0000002 V 5 C 21,3.9 20.1,3 19,3 Z"
     id="path2090"
     style="fill:#585858;fill-opacity:1"
     inkscape:connector-curvature="0"
     sodipodi:nodetypes="cccccsssssssss" />
  <path
     sodipodi:nodetypes="cccccsssssssss"
     inkscape:connector-curvature="0"
     style="fill:#585858;fill-opacity:1"
     id="path3271"
     d="M 19,14.640454 V 19 H 5 v -4.359546 h 14 m 0,-2 H 5 c -1.1,0 -2,0.9 -2,2 V 19 c 0,1.1 0.9,2 2,2 h 14 c 1.1,0 2,-0.9 2,-2 v -4.359546 c 0,-1.1 -0.9,-2 -2,-2 z" />
</svg>
